<?xml version="1.0" standalone="no"?>
<!DOCTYPE svg PUBLIC "-//W3C//DTD SVG 20010904//EN"
 "http://www.w3.org/TR/2001/REC-SVG-20010904/DTD/svg10.dtd">
<svg version="1.0" xmlns="http://www.w3.org/2000/svg"
 width="1024.000000pt" height="1024.000000pt" viewBox="0 0 1024.000000 1024.000000"
 preserveAspectRatio="xMidYMid meet">

<g transform="translate(0.000000,1024.000000) scale(0.100000,-0.100000)"
fill="#000000" stroke="none">
<path d="M0 5120 l0 -5120 5120 0 5120 0 0 5120 0 5120 -5120 0 -5120 0 0
-5120z m5372 3489 l3 -61 72 -19 c74 -18 126 -41 155 -66 15 -14 13 -21 -30
-91 -25 -43 -47 -78 -47 -79 -1 -2 -26 10 -56 27 -121 65 -222 70 -275 13 -55
-60 -15 -125 101 -163 236 -77 315 -156 315 -312 0 -89 -21 -139 -79 -191 -39
-35 -59 -46 -133 -76 -26 -10 -28 -15 -28 -66 l0 -55 -80 0 -80 0 0 53 0 52
-88 28 c-116 37 -152 59 -152 94 0 30 51 146 69 157 6 4 26 -4 44 -18 45 -34
134 -74 182 -81 128 -19 206 105 107 171 -17 12 -80 38 -139 59 -131 44 -188
83 -227 154 -85 157 -8 343 167 400 l37 13 0 59 0 59 80 0 79 0 3 -61z m-892
-603 l0 -133 -184 -61 c-493 -163 -871 -404 -1220 -781 -357 -385 -633 -944
-706 -1431 -6 -41 -13 -85 -16 -97 l-4 -23 164 0 164 0 12 88 c47 344 170 661
375 967 326 489 771 827 1330 1009 44 14 81 26 83 26 1 0 1 -61 0 -136 l-3
-136 -120 -47 c-314 -124 -533 -268 -776 -510 -199 -199 -318 -365 -434 -603
-95 -194 -166 -427 -182 -595 l-6 -63 225 0 c124 0 250 -5 279 -10 59 -11 209
-78 209 -92 0 -5 -73 -87 -162 -182 -90 -94 -259 -276 -376 -404 -118 -128
-220 -232 -228 -232 -9 0 -13 -4 -10 -9 12 -19 -28 -36 -90 -36 -44 0 -64 -4
-64 -12 0 -7 -4 -13 -9 -13 -5 0 -12 6 -14 13 -4 9 -7 9 -15 -1 -5 -8 -29 -16
-53 -19 -24 -3 -46 -10 -49 -14 -3 -4 -25 -11 -48 -15 -34 -5 -42 -4 -40 7 2
8 -3 13 -11 11 -12 -3 -12 -1 -1 13 7 9 19 14 26 11 7 -3 11 0 8 7 -4 11 85
109 563 627 l107 115 -392 3 c-216 1 -567 1 -781 0 l-390 -3 66 -75 c410 -471
673 -781 673 -797 0 -6 -13 -16 -30 -22 -17 -5 -30 -16 -30 -24 0 -9 -15 -18
-36 -22 -20 -3 -43 -13 -51 -21 -8 -8 -23 -14 -33 -14 -10 0 -21 -6 -23 -12
-4 -9 -17 0 -39 23 -63 69 -373 424 -458 524 -71 85 -321 370 -470 538 l-42
47 68 31 c117 53 166 59 521 59 298 0 322 1 327 18 2 9 7 44 11 77 21 188 107
503 200 735 146 360 370 694 670 996 386 391 850 656 1400 803 61 16 111 30
113 30 1 1 2 -59 2 -133z m1742 95 c218 -57 515 -175 713 -283 135 -75 334
-209 469 -318 126 -101 279 -240 273 -246 -2 -3 -29 -11 -61 -19 -109 -28
-242 -111 -328 -203 -65 -70 -141 -188 -174 -272 -15 -38 -29 -70 -30 -70 -2
0 -25 23 -51 51 -73 79 -217 195 -333 271 -135 89 -398 218 -522 259 l-98 31
0 134 c0 74 2 134 5 134 3 0 72 -22 153 -49 255 -84 491 -200 678 -334 l95
-68 21 28 c12 15 55 61 96 102 l75 73 -29 24 c-48 40 -224 158 -309 207 -104
60 -286 146 -417 197 -102 40 -327 110 -354 110 -11 0 -14 26 -14 135 0 111 3
135 14 135 8 0 66 -13 128 -29z m-602 -1135 l0 -254 48 -7 c302 -45 718 -236
905 -415 49 -49 57 -61 57 -93 0 -48 -24 -107 -44 -107 -17 0 -644 -234 -688
-256 -42 -22 -51 -17 -78 39 -60 126 -214 233 -377 262 -92 17 -269 19 -333 4
-133 -31 -257 -128 -313 -246 -28 -60 -32 -78 -32 -153 0 -76 3 -92 33 -152
62 -127 197 -221 382 -268 47 -12 161 -37 255 -56 213 -43 366 -83 482 -128
339 -129 556 -342 630 -616 13 -49 17 -103 17 -215 -1 -134 -3 -160 -28 -240
-34 -113 -95 -238 -142 -290 -20 -22 -32 -33 -27 -25 6 8 10 23 10 34 0 17 -1
17 -12 2 -14 -18 -121 -23 -127 -5 -6 19 -341 25 -1131 19 -589 -4 -780 -8
-785 -17 -6 -10 -58 -17 -154 -23 -5 0 -8 -7 -8 -15 0 -8 -5 -15 -11 -15 -5 0
-7 4 -4 10 3 6 1 10 -5 10 -22 0 -133 96 -196 169 -67 78 -81 114 -71 179 11
62 36 76 202 112 138 29 538 124 577 136 12 3 23 -9 42 -52 78 -170 214 -294
381 -347 60 -19 91 -22 225 -21 134 0 163 3 214 22 176 65 279 194 279 352 1
89 -29 154 -101 223 -100 94 -173 118 -507 167 -425 62 -568 104 -761 221
-196 118 -329 293 -401 526 -25 81 -27 102 -27 268 -1 146 3 194 18 255 43
167 129 321 252 445 137 139 349 246 580 290 49 10 95 19 102 21 9 3 12 62 12
254 l0 250 330 0 330 0 0 -254z m2449 -1 c63 -15 168 -61 204 -89 18 -14 18
-16 -11 -58 -16 -24 -37 -59 -47 -78 -10 -19 -19 -36 -20 -38 -2 -2 -22 8 -44
22 -99 63 -205 85 -311 66 -80 -14 -128 -39 -168 -85 -61 -69 -61 -68 206 -64
l237 4 3 -42 3 -43 -178 0 c-233 0 -313 -8 -313 -29 1 -29 41 -105 73 -139
110 -115 313 -115 459 0 34 27 37 27 43 9 3 -10 24 -47 46 -81 22 -34 38 -68
36 -74 -9 -22 -146 -87 -214 -101 -310 -66 -575 81 -636 352 -13 57 -14 58
-51 61 -37 3 -37 3 -34 45 3 39 5 42 35 45 27 3 33 9 47 47 43 128 189 244
343 274 76 14 222 12 292 -4z m52 -1437 c101 -111 354 -387 563 -612 l378
-411 -345 -3 -345 -2 -6 -31 c-3 -17 -6 -55 -6 -85 0 -84 -28 -277 -61 -423
-82 -358 -231 -684 -453 -991 l-76 -105 -103 3 c-115 3 -159 9 -169 26 -6 8
-8 7 -8 -1 0 -7 -12 -13 -27 -13 l-27 0 32 28 c18 16 32 34 32 40 0 5 3 12 8
14 23 10 197 265 275 403 198 351 317 806 317 1217 0 163 -20 148 202 148 168
0 188 2 180 16 -11 20 -543 606 -547 602 -77 -82 -535 -605 -535 -610 0 -5 88
-8 195 -8 l195 0 0 -37 c-1 -121 -22 -395 -39 -499 -20 -117 -77 -326 -120
-431 -62 -158 -184 -370 -302 -528 -97 -131 -92 -128 -199 -126 -57 1 -90 -2
-90 -8 0 -6 -18 -11 -40 -11 -22 0 -40 5 -40 10 0 6 -9 10 -19 10 -11 0 -23 5
-26 10 -4 6 -12 8 -18 4 -7 -3 -4 1 6 9 9 8 17 18 17 24 0 5 14 22 31 39 57
53 156 179 233 292 171 253 280 555 316 877 5 50 10 100 10 112 l0 23 -334 2
-335 3 97 111 c113 128 439 496 505 569 25 28 144 161 264 297 120 135 221
247 224 247 3 1 88 -90 190 -201z m-5656 -1108 c3 -5 1 -10 -4 -10 -6 0 -11 5
-11 10 0 6 2 10 4 10 3 0 8 -4 11 -10z m535 -624 c5 -38 6 -39 70 -55 77 -19
151 -60 179 -99 11 -16 21 -49 23 -78 l3 -49 -73 -3 -73 -3 -54 58 c-36 38
-58 54 -65 47 -5 -5 -11 -90 -12 -194 l-3 -185 -24 -3 c-12 -2 -34 -1 -47 2
l-24 6 -2 193 c-3 191 -3 192 -26 195 -46 7 -129 -27 -174 -71 -39 -37 -88
-120 -88 -147 0 -6 31 -10 75 -10 l75 0 0 -45 0 -45 -81 0 c-79 0 -80 0 -74
-22 16 -55 17 -64 6 -48 -7 10 -11 11 -11 3 0 -17 -119 -17 -142 0 -9 7 -18
24 -20 37 -2 20 -9 25 -30 25 -26 -1 -28 2 -28 41 0 36 3 43 22 46 17 2 26 15
38 58 32 105 80 171 165 225 71 45 132 66 216 73 l74 7 3 43 3 43 47 -3 c46
-3 47 -4 52 -42z m4210 -709 c0 -2 -12 -14 -27 -28 l-28 -24 24 28 c23 25 31
32 31 24z m-1860 -776 l0 -49 45 -11 c60 -15 158 -59 153 -68 -7 -16 -61 -118
-64 -122 -1 -1 -28 9 -60 24 -65 31 -150 43 -182 26 -12 -6 -29 -23 -38 -37
-35 -52 4 -84 164 -139 137 -47 203 -123 201 -230 -1 -27 -3 -42 -6 -32 -4 14
-17 17 -82 17 l-78 0 -7 30 c-6 33 -28 46 -175 101 -132 50 -191 116 -191 216
1 89 50 159 140 199 39 18 40 19 40 71 l0 53 70 0 70 0 0 -49z m-245 -619 c-7
-8 -45 10 -40 19 4 5 14 3 25 -3 11 -7 17 -14 15 -16z"/>
</g>
</svg>
