<?xml version="1.0" encoding="UTF-8"?>
<!DOCTYPE svg PUBLIC "-//W3C//DTD SVG 1.1//EN" "http://www.w3.org/Graphics/SVG/1.1/DTD/svg11.dtd">
<svg xmlns="http://www.w3.org/2000/svg" version="1.1" width="1024px" height="1024px" style="shape-rendering:geometricPrecision; text-rendering:geometricPrecision; image-rendering:optimizeQuality; fill-rule:evenodd; clip-rule:evenodd" xmlns:xlink="http://www.w3.org/1999/xlink">
<g><path style="opacity:1" fill="#010813" d="M -0.5,-0.5 C 340.833,-0.5 682.167,-0.5 1023.5,-0.5C 1023.5,340.833 1023.5,682.167 1023.5,1023.5C 682.167,1023.5 340.833,1023.5 -0.5,1023.5C -0.5,682.167 -0.5,340.833 -0.5,-0.5 Z"/></g>
<g><path style="opacity:1" fill="#b8c2ca" d="M 536.5,168.5 C 535.518,165.038 535.185,161.371 535.5,157.5C 530.833,157.5 526.167,157.5 521.5,157.5C 521.815,161.371 521.482,165.038 520.5,168.5C 520.5,164.5 520.5,160.5 520.5,156.5C 525.833,156.5 531.167,156.5 536.5,156.5C 536.5,160.5 536.5,164.5 536.5,168.5 Z"/></g>
<g><path style="opacity:1" fill="#e2ebef" d="M 536.5,168.5 C 541.711,169.973 547.044,171.473 552.5,173C 555.249,174.123 557.749,175.623 560,177.5C 560.667,178.5 560.667,179.5 560,180.5C 557.365,185.298 554.532,189.965 551.5,194.5C 543.16,188.219 533.826,185.719 523.5,187C 515.484,191.098 514.484,196.432 520.5,203C 529.661,206.276 538.661,209.942 547.5,214C 559.478,221.457 563.478,231.957 559.5,245.5C 557.83,245.249 556.33,244.582 555,243.5C 551.256,244.626 547.423,244.793 543.5,244C 542.177,243.184 541.511,242.017 541.5,240.5C 541.953,236.574 540.62,233.408 537.5,231C 528.948,227.362 520.281,224.029 511.5,221C 496.212,210.684 492.712,197.184 501,180.5C 506.129,174.191 512.629,170.191 520.5,168.5C 521.482,165.038 521.815,161.371 521.5,157.5C 526.167,157.5 530.833,157.5 535.5,157.5C 535.185,161.371 535.518,165.038 536.5,168.5 Z"/></g>
<g><path style="opacity:1" fill="#3a4249" d="M 446.5,210.5 C 446.56,209.957 446.893,209.624 447.5,209.5C 448.822,218.658 448.822,227.658 447.5,236.5C 447.826,227.651 447.493,218.984 446.5,210.5 Z"/></g>
<g><path style="opacity:1" fill="#e3eef2" d="M 446.5,210.5 C 447.493,218.984 447.826,227.651 447.5,236.5C 361.281,259.729 298.615,311.395 259.5,391.5C 258.198,392.357 256.865,392.857 255.5,393C 255.678,390.045 255.678,386.879 255.5,383.5C 251.5,383.5 247.5,383.5 243.5,383.5C 243.395,376.087 244.062,368.753 245.5,361.5C 246.978,361.762 248.311,361.429 249.5,360.5C 251.086,357.659 252.92,354.993 255,352.5C 255.595,351.101 255.428,349.768 254.5,348.5C 256.483,346.016 258.65,343.683 261,341.5C 261.093,338.993 261.926,336.826 263.5,335C 262.748,334.329 262.414,333.496 262.5,332.5C 296.331,284.415 340.331,248.915 394.5,226C 411.294,218.901 428.627,213.734 446.5,210.5 Z"/></g>
<g><path style="opacity:1" fill="#b7ced3" d="M 501.5,241.5 C 503.116,243.416 502.782,244.916 500.5,246C 502.873,248.64 504.207,251.807 504.5,255.5C 507.053,256.056 509.72,256.056 512.5,255.5C 517.751,257.146 523.084,258.479 528.5,259.5C 529.167,259.167 529.833,258.833 530.5,258.5C 535.081,259.094 539.414,260.428 543.5,262.5C 541.333,263.269 539.166,264.269 537,265.5C 536.501,269.486 536.334,273.486 536.5,277.5C 531.167,277.5 525.833,277.5 520.5,277.5C 520.5,273.5 520.5,269.5 520.5,265.5C 511.857,264.564 504.024,261.564 497,256.5C 496.002,250.667 497.502,245.667 501.5,241.5 Z"/></g>
<g><path style="opacity:1" fill="#c8dbe0" d="M 541.5,240.5 C 541.511,242.017 542.177,243.184 543.5,244C 547.423,244.793 551.256,244.626 555,243.5C 556.33,244.582 557.83,245.249 559.5,245.5C 556.936,253.732 551.602,259.399 543.5,262.5C 539.414,260.428 535.081,259.094 530.5,258.5C 529.833,258.833 529.167,259.167 528.5,259.5C 523.084,258.479 517.751,257.146 512.5,255.5C 509.72,256.056 507.053,256.056 504.5,255.5C 504.207,251.807 502.873,248.64 500.5,246C 502.782,244.916 503.116,243.416 501.5,241.5C 501.572,239.689 502.405,238.356 504,237.5C 509.232,241.05 514.732,244.217 520.5,247C 526.755,248.127 532.755,247.46 538.5,245C 539.399,243.348 540.399,241.848 541.5,240.5 Z"/></g>
<g><path style="opacity:1" fill="#e5eef2" d="M 607.5,210.5 C 669.723,223.771 723.056,252.938 767.5,298C 737.694,306.303 717.694,325.136 707.5,354.5C 679.938,325.657 646.938,305.323 608.5,293.5C 607.335,284.518 607.168,275.518 608,266.5C 641.848,275.508 672.681,290.508 700.5,311.5C 705.814,304.352 711.981,298.019 719,292.5C 719.667,291.833 719.667,291.167 719,290.5C 685.843,264.709 648.676,247.042 607.5,237.5C 607.5,228.5 607.5,219.5 607.5,210.5 Z"/></g>
<g><path style="opacity:1" fill="#e3eef1" d="M 339.5,368.5 C 338.448,368.351 337.448,368.517 336.5,369C 335.167,369.667 335.167,370.333 336.5,371C 333.635,370.459 331.635,371.793 330.5,375C 329.552,375.483 328.552,375.649 327.5,375.5C 327.5,370.167 327.5,364.833 327.5,359.5C 326.178,359.67 325.011,359.337 324,358.5C 323.242,356.231 323.409,354.064 324.5,352C 323.643,351.311 322.977,350.478 322.5,349.5C 328.041,344.793 333.041,339.627 337.5,334C 337.43,333.235 337.097,332.735 336.5,332.5C 367.171,300.818 403.838,278.818 446.5,266.5C 447.817,275.727 447.817,284.893 446.5,294C 403.49,308.487 367.824,333.321 339.5,368.5 Z"/></g>
<g><path style="opacity:1" fill="#30383f" d="M 495.5,301.5 C 495.5,318.5 495.5,335.5 495.5,352.5C 494.167,352.5 492.833,352.5 491.5,352.5C 492.209,351.596 493.209,351.263 494.5,351.5C 494.17,334.658 494.503,317.992 495.5,301.5 Z"/></g>
<g><path style="opacity:1" fill="#e4eff2" d="M 763.5,358.5 C 778.991,359.496 794.658,359.83 810.5,359.5C 810.5,362.167 810.5,364.833 810.5,367.5C 794.325,367.17 778.325,367.504 762.5,368.5C 760.283,369.369 757.95,369.702 755.5,369.5C 755.5,370.5 755.5,371.5 755.5,372.5C 758.045,372.151 760.045,372.984 761.5,375C 755.647,375.601 749.98,376.768 744.5,378.5C 743.072,375.697 742.405,372.697 742.5,369.5C 740.365,367.631 737.698,366.964 734.5,367.5C 734.5,364.5 734.5,361.5 734.5,358.5C 736.833,358.5 739.167,358.5 741.5,358.5C 746.39,341.78 757.39,331.28 774.5,327C 793.552,322.98 811.219,326.147 827.5,336.5C 827.833,336.833 828.167,337.167 828.5,337.5C 825.167,342.833 821.833,348.167 818.5,353.5C 803.328,342.282 787.328,340.782 770.5,349C 767.152,351.501 764.818,354.668 763.5,358.5 Z"/></g>
<g><path style="opacity:1" fill="#e3eef1" d="M 495.5,301.5 C 517.5,301.5 539.5,301.5 561.5,301.5C 561.5,318.5 561.5,335.5 561.5,352.5C 560.826,336.765 560.16,320.931 559.5,305C 552.729,303.915 545.895,303.415 539,303.5C 529.7,303.725 520.533,304.059 511.5,304.5C 511.5,305.5 511.5,306.5 511.5,307.5C 508.833,307.5 506.167,307.5 503.5,307.5C 503.5,306.167 503.5,304.833 503.5,303.5C 502.167,303.5 500.833,303.5 499.5,303.5C 499.5,308.833 499.5,314.167 499.5,319.5C 500.833,319.5 502.167,319.5 503.5,319.5C 503.5,316.833 503.5,314.167 503.5,311.5C 514.167,311.5 524.833,311.5 535.5,311.5C 535.5,316.833 535.5,322.167 535.5,327.5C 532.833,327.5 530.167,327.5 527.5,327.5C 527.5,335.5 527.5,343.5 527.5,351.5C 524.833,351.5 522.167,351.5 519.5,351.5C 519.5,354.167 519.5,356.833 519.5,359.5C 516.833,359.5 514.167,359.5 511.5,359.5C 511.5,364.833 511.5,370.167 511.5,375.5C 508.833,375.5 506.167,375.5 503.5,375.5C 503.5,380.833 503.5,386.167 503.5,391.5C 500.833,391.5 498.167,391.5 495.5,391.5C 495.5,394.167 495.5,396.833 495.5,399.5C 494.167,399.5 492.833,399.5 491.5,399.5C 491.5,402.167 491.5,404.833 491.5,407.5C 492.833,407.5 494.167,407.5 495.5,407.5C 495.5,408.833 495.5,410.167 495.5,411.5C 500.815,410.188 506.148,408.855 511.5,407.5C 511.5,406.167 511.5,404.833 511.5,403.5C 518.833,403.5 526.167,403.5 533.5,403.5C 534.004,407.335 535.004,407.335 536.5,403.5C 537.684,405.467 537.351,407.134 535.5,408.5C 513.672,405.047 495.838,411.714 482,428.5C 476.847,436.779 474.68,445.779 475.5,455.5C 471.191,455.756 467.191,454.756 463.5,452.5C 464.689,451.571 466.022,451.238 467.5,451.5C 467.5,450.167 467.5,448.833 467.5,447.5C 466.167,447.5 464.833,447.5 463.5,447.5C 463.5,446.167 463.5,444.833 463.5,443.5C 468.694,443.058 468.694,442.058 463.5,440.5C 458.208,439.505 452.875,439.172 447.5,439.5C 447.5,442.167 447.5,444.833 447.5,447.5C 444.833,447.5 442.167,447.5 439.5,447.5C 439.5,444.833 439.5,442.167 439.5,439.5C 436.833,439.5 434.167,439.5 431.5,439.5C 431.5,442.167 431.5,444.833 431.5,447.5C 428.833,447.5 426.167,447.5 423.5,447.5C 423.5,444.833 423.5,442.167 423.5,439.5C 420.833,439.5 418.167,439.5 415.5,439.5C 415.5,440.5 415.5,441.5 415.5,442.5C 414.167,442.5 412.833,442.5 411.5,442.5C 411.5,440.5 411.5,438.5 411.5,436.5C 410.167,436.5 408.833,436.5 407.5,436.5C 407.5,437.5 407.5,438.5 407.5,439.5C 402.297,440.016 400.964,438.35 403.5,434.5C 403.422,430.51 403.089,426.51 402.5,422.5C 411.993,392.171 431.659,371.338 461.5,360C 471.209,356.239 481.209,353.739 491.5,352.5C 492.833,352.5 494.167,352.5 495.5,352.5C 495.5,335.5 495.5,318.5 495.5,301.5 Z"/></g>
<g><path style="opacity:1" fill="#677178" d="M 734.5,367.5 C 737.698,366.964 740.365,367.631 742.5,369.5C 739.72,368.922 737.053,368.255 734.5,367.5 Z"/></g>
<g><path style="opacity:1" fill="#606971" d="M 763.5,358.5 C 779.5,358.5 795.5,358.5 811.5,358.5C 811.5,361.833 811.5,365.167 811.5,368.5C 795.167,368.5 778.833,368.5 762.5,368.5C 778.325,367.504 794.325,367.17 810.5,367.5C 810.5,364.833 810.5,362.167 810.5,359.5C 794.658,359.83 778.991,359.496 763.5,358.5 Z"/></g>
<g><path style="opacity:1" fill="#e6f0f2" d="M 561.5,352.5 C 599.606,357.571 632.773,372.904 661,398.5C 663.179,403.908 662.679,409.075 659.5,414C 634.511,422.329 609.844,431.496 585.5,441.5C 574.99,421.554 558.323,410.554 535.5,408.5C 537.351,407.134 537.684,405.467 536.5,403.5C 535.004,407.335 534.004,407.335 533.5,403.5C 526.167,403.5 518.833,403.5 511.5,403.5C 511.5,404.833 511.5,406.167 511.5,407.5C 506.148,408.855 500.815,410.188 495.5,411.5C 495.5,410.167 495.5,408.833 495.5,407.5C 494.167,407.5 492.833,407.5 491.5,407.5C 491.5,404.833 491.5,402.167 491.5,399.5C 492.833,399.5 494.167,399.5 495.5,399.5C 495.5,396.833 495.5,394.167 495.5,391.5C 498.167,391.5 500.833,391.5 503.5,391.5C 503.5,386.167 503.5,380.833 503.5,375.5C 506.167,375.5 508.833,375.5 511.5,375.5C 511.5,370.167 511.5,364.833 511.5,359.5C 514.167,359.5 516.833,359.5 519.5,359.5C 519.5,356.833 519.5,354.167 519.5,351.5C 522.167,351.5 524.833,351.5 527.5,351.5C 527.5,343.5 527.5,335.5 527.5,327.5C 530.167,327.5 532.833,327.5 535.5,327.5C 535.5,322.167 535.5,316.833 535.5,311.5C 524.833,311.5 514.167,311.5 503.5,311.5C 503.5,314.167 503.5,316.833 503.5,319.5C 502.167,319.5 500.833,319.5 499.5,319.5C 499.5,314.167 499.5,308.833 499.5,303.5C 500.833,303.5 502.167,303.5 503.5,303.5C 503.5,304.833 503.5,306.167 503.5,307.5C 506.167,307.5 508.833,307.5 511.5,307.5C 511.5,306.5 511.5,305.5 511.5,304.5C 520.533,304.059 529.7,303.725 539,303.5C 545.895,303.415 552.729,303.915 559.5,305C 560.16,320.931 560.826,336.765 561.5,352.5 Z"/></g>
<g><path style="opacity:1" fill="#c4d8dd" d="M 762.5,368.5 C 764.289,380.457 770.956,388.291 782.5,392C 796.522,394.623 808.689,391.123 819,381.5C 821.999,387.502 825.499,393.168 829.5,398.5C 812.388,410.408 793.721,413.574 773.5,408C 758.922,402.922 749.255,393.089 744.5,378.5C 749.98,376.768 755.647,375.601 761.5,375C 760.045,372.984 758.045,372.151 755.5,372.5C 755.5,371.5 755.5,370.5 755.5,369.5C 757.95,369.702 760.283,369.369 762.5,368.5 Z"/></g>
<g><path style="opacity:1" fill="#d7e6eb" d="M 336.5,332.5 C 337.097,332.735 337.43,333.235 337.5,334C 333.041,339.627 328.041,344.793 322.5,349.5C 322.977,350.478 323.643,351.311 324.5,352C 323.409,354.064 323.242,356.231 324,358.5C 325.011,359.337 326.178,359.67 327.5,359.5C 327.5,364.833 327.5,370.167 327.5,375.5C 328.552,375.649 329.552,375.483 330.5,375C 331.635,371.793 333.635,370.459 336.5,371C 335.167,370.333 335.167,369.667 336.5,369C 337.448,368.517 338.448,368.351 339.5,368.5C 318.809,394.887 304.809,424.554 297.5,457.5C 295.468,456.952 294.468,455.619 294.5,453.5C 292.167,453.5 289.833,453.5 287.5,453.5C 287.5,449.833 287.5,446.167 287.5,442.5C 286.167,442.5 284.833,442.5 283.5,442.5C 283.654,431.453 284.487,420.453 286,409.5C 287.87,407.595 289.37,405.428 290.5,403C 289.366,401.984 289.699,401.317 291.5,401C 291.146,399.374 291.146,397.541 291.5,395.5C 297.205,383.266 304.039,371.599 312,360.5C 319.287,350.381 327.453,341.048 336.5,332.5 Z"/></g>
<g><path style="opacity:1" fill="#d0e1e5" d="M 291.5,395.5 C 291.146,397.541 291.146,399.374 291.5,401C 289.699,401.317 289.366,401.984 290.5,403C 289.37,405.428 287.87,407.595 286,409.5C 284.487,420.453 283.654,431.453 283.5,442.5C 284.833,442.5 286.167,442.5 287.5,442.5C 287.5,446.167 287.5,449.833 287.5,453.5C 289.833,453.5 292.167,453.5 294.5,453.5C 294.468,455.619 295.468,456.952 297.5,457.5C 296.181,463.419 295.514,469.419 295.5,475.5C 304.167,475.5 312.833,475.5 321.5,475.5C 323.903,476.131 326.236,477.131 328.5,478.5C 327.332,480.217 325.665,480.884 323.5,480.5C 323.5,481.833 323.5,483.167 323.5,484.5C 322.167,484.5 320.833,484.5 319.5,484.5C 319.5,486.833 319.5,489.167 319.5,491.5C 318.167,491.5 316.833,491.5 315.5,491.5C 315.5,493.167 315.5,494.833 315.5,496.5C 311.316,496.851 307.316,497.518 303.5,498.5C 281.167,498.5 258.833,498.5 236.5,498.5C 249.327,497.669 262.327,497.169 275.5,497C 280.794,496.182 280.794,495.682 275.5,495.5C 275.5,490.167 275.5,484.833 275.5,479.5C 274.167,479.5 272.833,479.5 271.5,479.5C 271.512,476.858 270.179,475.525 267.5,475.5C 267.5,475.167 267.5,474.833 267.5,474.5C 269.898,446.317 277.898,419.983 291.5,395.5 Z"/></g>
<g><path style="opacity:1" fill="#d8e6e9" d="M 402.5,422.5 C 403.089,426.51 403.422,430.51 403.5,434.5C 400.964,438.35 402.297,440.016 407.5,439.5C 407.5,438.5 407.5,437.5 407.5,436.5C 408.833,436.5 410.167,436.5 411.5,436.5C 411.5,438.5 411.5,440.5 411.5,442.5C 412.833,442.5 414.167,442.5 415.5,442.5C 415.5,441.5 415.5,440.5 415.5,439.5C 418.167,439.5 420.833,439.5 423.5,439.5C 423.5,442.167 423.5,444.833 423.5,447.5C 426.167,447.5 428.833,447.5 431.5,447.5C 431.5,444.833 431.5,442.167 431.5,439.5C 434.167,439.5 436.833,439.5 439.5,439.5C 439.5,442.167 439.5,444.833 439.5,447.5C 442.167,447.5 444.833,447.5 447.5,447.5C 447.5,444.833 447.5,442.167 447.5,439.5C 452.875,439.172 458.208,439.505 463.5,440.5C 468.694,442.058 468.694,443.058 463.5,443.5C 463.5,444.833 463.5,446.167 463.5,447.5C 464.833,447.5 466.167,447.5 467.5,447.5C 467.5,448.833 467.5,450.167 467.5,451.5C 466.022,451.238 464.689,451.571 463.5,452.5C 467.191,454.756 471.191,455.756 475.5,455.5C 480.676,471.678 491.342,482.678 507.5,488.5C 506.407,490.567 506.907,491.234 509,490.5C 510.952,492.998 513.285,493.665 516,492.5C 518.741,494.067 519.908,496.401 519.5,499.5C 506.167,499.5 492.833,499.5 479.5,499.5C 479.5,496.833 479.5,494.167 479.5,491.5C 474.167,491.5 468.833,491.5 463.5,491.5C 463.5,490.167 463.5,488.833 463.5,487.5C 455.5,487.5 447.5,487.5 439.5,487.5C 439.5,488.833 439.5,490.167 439.5,491.5C 436.833,491.5 434.167,491.5 431.5,491.5C 431.5,490.167 431.5,488.833 431.5,487.5C 426.167,487.5 420.833,487.5 415.5,487.5C 415.5,489.5 415.5,491.5 415.5,493.5C 413.278,493.178 411.444,493.845 410,495.5C 409.329,494.748 408.496,494.414 407.5,494.5C 398.955,475.758 396.121,456.091 399,435.5C 399.614,430.89 400.78,426.557 402.5,422.5 Z"/></g>
<g><path style="opacity:1" fill="#ddebef" d="M 874.5,539.5 C 873.355,540.793 873.689,541.959 875.5,543C 874.451,543.492 873.451,543.326 872.5,542.5C 871.548,544.045 871.215,545.712 871.5,547.5C 863.414,547.199 855.414,547.533 847.5,548.5C 829.574,528.343 811.408,508.343 793,488.5C 778.968,504.694 764.801,520.694 750.5,536.5C 748.283,535.631 745.95,535.298 743.5,535.5C 743.5,536.5 743.5,537.5 743.5,538.5C 742.167,538.5 740.833,538.5 739.5,538.5C 739.5,539.5 739.5,540.5 739.5,541.5C 736.833,542.167 734.167,542.833 731.5,543.5C 731.5,542.5 731.5,541.5 731.5,540.5C 730.167,540.5 728.833,540.5 727.5,540.5C 726.883,544.422 726.216,544.422 725.5,540.5C 724.141,536.471 723.808,532.471 724.5,528.5C 727.598,528.587 727.932,528.087 725.5,527C 726.823,526.184 727.489,525.017 727.5,523.5C 748.831,498.838 770.497,474.504 792.5,450.5C 819.827,480.161 847.16,509.828 874.5,539.5 Z"/></g>
<g><path style="opacity:1" fill="#3d4850" d="M 235.5,473.5 C 245.987,474.494 256.654,474.828 267.5,474.5C 267.5,474.833 267.5,475.167 267.5,475.5C 256.48,475.832 245.48,475.499 234.5,474.5C 234.624,473.893 234.957,473.56 235.5,473.5 Z"/></g>
<g><path style="opacity:1" fill="#d8e7ea" d="M 262.5,332.5 C 262.414,333.496 262.748,334.329 263.5,335C 261.926,336.826 261.093,338.993 261,341.5C 258.65,343.683 256.483,346.016 254.5,348.5C 255.428,349.768 255.595,351.101 255,352.5C 252.92,354.993 251.086,357.659 249.5,360.5C 248.311,361.429 246.978,361.762 245.5,361.5C 244.062,368.753 243.395,376.087 243.5,383.5C 247.5,383.5 251.5,383.5 255.5,383.5C 255.678,386.879 255.678,390.045 255.5,393C 256.865,392.857 258.198,392.357 259.5,391.5C 246.839,417.48 238.839,444.814 235.5,473.5C 234.957,473.56 234.624,473.893 234.5,474.5C 245.48,475.499 256.48,475.832 267.5,475.5C 270.179,475.525 271.512,476.858 271.5,479.5C 272.833,479.5 274.167,479.5 275.5,479.5C 275.5,484.833 275.5,490.167 275.5,495.5C 280.794,495.682 280.794,496.182 275.5,497C 262.327,497.169 249.327,497.669 236.5,498.5C 212.164,498.333 187.831,498.5 163.5,499C 168.71,504.706 173.71,510.539 178.5,516.5C 177.957,516.56 177.624,516.893 177.5,517.5C 179.571,518.976 180.571,520.976 180.5,523.5C 181.552,523.351 182.552,523.517 183.5,524C 178.306,525.67 178.306,527.17 183.5,528.5C 181.608,529.473 179.608,530.14 177.5,530.5C 172.035,528.534 168.369,530.2 166.5,535.5C 164.408,535.439 162.908,534.439 162,532.5C 161.329,533.252 160.496,533.586 159.5,533.5C 144.949,517.426 130.615,501.093 116.5,484.5C 123.683,480.383 131.35,477.55 139.5,476C 162.164,475.5 184.831,475.333 207.5,475.5C 213.48,422.866 231.813,375.199 262.5,332.5 Z"/></g>
<g><path style="opacity:1" fill="#b7cdd4" d="M 321.5,475.5 C 337.46,473.881 352.46,476.881 366.5,484.5C 367.521,485.002 367.688,485.668 367,486.5C 363.964,489.704 360.797,492.704 357.5,495.5C 355.876,495.36 354.71,496.027 354,497.5C 344.089,497.203 334.089,497.87 324,499.5C 322.408,499.395 320.908,499.061 319.5,498.5C 314.167,498.5 308.833,498.5 303.5,498.5C 307.316,497.518 311.316,496.851 315.5,496.5C 315.5,494.833 315.5,493.167 315.5,491.5C 316.833,491.5 318.167,491.5 319.5,491.5C 319.5,489.167 319.5,486.833 319.5,484.5C 320.833,484.5 322.167,484.5 323.5,484.5C 323.5,483.167 323.5,481.833 323.5,480.5C 325.665,480.884 327.332,480.217 328.5,478.5C 326.236,477.131 323.903,476.131 321.5,475.5 Z"/></g>
<g><path style="opacity:1" fill="#010913" d="M 236.5,498.5 C 258.833,498.5 281.167,498.5 303.5,498.5C 308.833,498.5 314.167,498.5 319.5,498.5C 316.543,502.792 313.21,506.792 309.5,510.5C 302.861,517.474 296.194,524.474 289.5,531.5C 283.491,537.51 277.825,543.843 272.5,550.5C 266.13,555.869 260.463,561.869 255.5,568.5C 250.23,574.271 244.73,579.938 239,585.5C 237.961,584.29 236.794,583.29 235.5,582.5C 233.471,580.142 231.471,577.808 229.5,575.5C 227.823,573.46 226.156,571.46 224.5,569.5C 222.471,567.142 220.471,564.808 218.5,562.5C 213.175,555.843 207.509,549.51 201.5,543.5C 194.179,534.181 186.512,525.181 178.5,516.5C 173.71,510.539 168.71,504.706 163.5,499C 187.831,498.5 212.164,498.333 236.5,498.5 Z"/></g>
<g><path style="opacity:1" fill="#cddfe3" d="M 507.5,488.5 C 531.776,494.39 556.109,500.223 580.5,506C 592.686,509.55 604.02,514.717 614.5,521.5C 614.062,521.435 613.728,521.601 613.5,522C 615.099,523.066 616.099,524.566 616.5,526.5C 618.423,527.308 620.423,527.808 622.5,528C 592.178,528.627 561.845,528.127 531.5,526.5C 525.123,523.868 518.457,522.868 511.5,523.5C 511.5,524.833 511.5,526.167 511.5,527.5C 507.5,527.5 503.5,527.5 499.5,527.5C 499.5,526.167 499.5,524.833 499.5,523.5C 495.975,523.785 492.642,523.119 489.5,521.5C 486.358,523.119 483.025,523.785 479.5,523.5C 479.5,522.167 479.5,520.833 479.5,519.5C 474.167,519.5 468.833,519.5 463.5,519.5C 463.5,518.167 463.5,516.833 463.5,515.5C 460.833,515.5 458.167,515.5 455.5,515.5C 455.5,516.833 455.5,518.167 455.5,519.5C 450.789,519.718 446.122,519.385 441.5,518.5C 439.666,519.754 437.666,520.421 435.5,520.5C 435.688,522.103 435.188,523.437 434,524.5C 432.644,523.62 431.144,523.286 429.5,523.5C 419.87,515.542 412.537,505.875 407.5,494.5C 408.496,494.414 409.329,494.748 410,495.5C 411.444,493.845 413.278,493.178 415.5,493.5C 415.5,491.5 415.5,489.5 415.5,487.5C 420.833,487.5 426.167,487.5 431.5,487.5C 431.5,488.833 431.5,490.167 431.5,491.5C 434.167,491.5 436.833,491.5 439.5,491.5C 439.5,490.167 439.5,488.833 439.5,487.5C 447.5,487.5 455.5,487.5 463.5,487.5C 463.5,488.833 463.5,490.167 463.5,491.5C 468.833,491.5 474.167,491.5 479.5,491.5C 479.5,494.167 479.5,496.833 479.5,499.5C 492.833,499.5 506.167,499.5 519.5,499.5C 519.908,496.401 518.741,494.067 516,492.5C 513.285,493.665 510.952,492.998 509,490.5C 506.907,491.234 506.407,490.567 507.5,488.5 Z"/></g>
<g><path style="opacity:1" fill="#9dbac1" d="M 357.5,495.5 C 351.174,503.158 344.508,510.492 337.5,517.5C 336.883,517.389 336.383,517.056 336,516.5C 327.333,517.167 318.667,517.833 310,518.5C 308.39,515.872 308.223,513.205 309.5,510.5C 313.21,506.792 316.543,502.792 319.5,498.5C 320.908,499.061 322.408,499.395 324,499.5C 334.089,497.87 344.089,497.203 354,497.5C 354.71,496.027 355.876,495.36 357.5,495.5 Z"/></g>
<g><path style="opacity:1" fill="#c4d8dd" d="M 614.5,521.5 C 622.038,525.7 628.704,531.034 634.5,537.5C 634.389,538.117 634.056,538.617 633.5,539C 629.65,540.038 626.317,539.204 623.5,536.5C 588.84,535.5 554.173,535.167 519.5,535.5C 519.5,536.833 519.5,538.167 519.5,539.5C 501.447,539.736 483.447,539.736 465.5,539.5C 464.808,540.025 464.308,540.692 464,541.5C 459.744,536.297 454.244,534.297 447.5,535.5C 440.803,532.489 434.803,528.489 429.5,523.5C 431.144,523.286 432.644,523.62 434,524.5C 435.188,523.437 435.688,522.103 435.5,520.5C 437.666,520.421 439.666,519.754 441.5,518.5C 446.122,519.385 450.789,519.718 455.5,519.5C 455.5,518.167 455.5,516.833 455.5,515.5C 458.167,515.5 460.833,515.5 463.5,515.5C 463.5,516.833 463.5,518.167 463.5,519.5C 468.833,519.5 474.167,519.5 479.5,519.5C 479.5,520.833 479.5,522.167 479.5,523.5C 483.025,523.785 486.358,523.119 489.5,521.5C 492.642,523.119 495.975,523.785 499.5,523.5C 499.5,524.833 499.5,526.167 499.5,527.5C 503.5,527.5 507.5,527.5 511.5,527.5C 511.5,526.167 511.5,524.833 511.5,523.5C 518.457,522.868 525.123,523.868 531.5,526.5C 561.845,528.127 592.178,528.627 622.5,528C 620.423,527.808 618.423,527.308 616.5,526.5C 616.099,524.566 615.099,523.066 613.5,522C 613.728,521.601 614.062,521.435 614.5,521.5 Z"/></g>
<g><path style="opacity:1" fill="#88a8b0" d="M 309.5,510.5 C 308.223,513.205 308.39,515.872 310,518.5C 318.667,517.833 327.333,517.167 336,516.5C 336.383,517.056 336.883,517.389 337.5,517.5C 331.055,524.733 324.389,531.733 317.5,538.5C 317.44,537.957 317.107,537.624 316.5,537.5C 315.167,538.833 313.833,540.167 312.5,541.5C 305.531,540.288 298.531,540.288 291.5,541.5C 289.22,541.267 287.22,540.434 285.5,539C 287.54,536.815 288.874,534.315 289.5,531.5C 296.194,524.474 302.861,517.474 309.5,510.5 Z"/></g>
<g><path style="opacity:1" fill="#b9d0d6" d="M 447.5,535.5 C 454.244,534.297 459.744,536.297 464,541.5C 464.308,540.692 464.808,540.025 465.5,539.5C 483.447,539.736 501.447,539.736 519.5,539.5C 519.5,538.167 519.5,536.833 519.5,535.5C 554.173,535.167 588.84,535.5 623.5,536.5C 626.317,539.204 629.65,540.038 633.5,539C 634.056,538.617 634.389,538.117 634.5,537.5C 638.215,540.607 641.215,544.273 643.5,548.5C 612.252,551.225 580.918,552.225 549.5,551.5C 548.833,547.5 548.167,547.5 547.5,551.5C 540.676,551.362 534.01,550.362 527.5,548.5C 527.5,549.5 527.5,550.5 527.5,551.5C 519.799,551.309 512.132,551.642 504.5,552.5C 484.234,550.689 465.234,545.022 447.5,535.5 Z"/></g>
<g><path style="opacity:1" fill="#bed4d7" d="M 178.5,516.5 C 186.512,525.181 194.179,534.181 201.5,543.5C 200.566,544.568 200.232,545.901 200.5,547.5C 199.167,547.5 197.833,547.5 196.5,547.5C 196.719,548.675 196.386,549.675 195.5,550.5C 193.556,551.189 191.556,551.689 189.5,552C 187.509,555.172 184.843,557.672 181.5,559.5C 173.791,551.127 166.458,542.46 159.5,533.5C 160.496,533.586 161.329,533.252 162,532.5C 162.908,534.439 164.408,535.439 166.5,535.5C 168.369,530.2 172.035,528.534 177.5,530.5C 179.608,530.14 181.608,529.473 183.5,528.5C 178.306,527.17 178.306,525.67 183.5,524C 182.552,523.517 181.552,523.351 180.5,523.5C 180.571,520.976 179.571,518.976 177.5,517.5C 177.624,516.893 177.957,516.56 178.5,516.5 Z"/></g>
<g><path style="opacity:1" fill="#7898a0" d="M 289.5,531.5 C 288.874,534.315 287.54,536.815 285.5,539C 287.22,540.434 289.22,541.267 291.5,541.5C 298.531,540.288 305.531,540.288 312.5,541.5C 313.833,540.167 315.167,538.833 316.5,537.5C 317.107,537.624 317.44,537.957 317.5,538.5C 314.566,542.773 311.233,546.773 307.5,550.5C 303.861,550.422 301.194,551.922 299.5,555C 290.285,556.906 280.952,557.739 271.5,557.5C 271.448,555.097 271.781,552.764 272.5,550.5C 277.825,543.843 283.491,537.51 289.5,531.5 Z"/></g>
<g><path style="opacity:1" fill="#cfe0e5" d="M 727.5,523.5 C 727.489,525.017 726.823,526.184 725.5,527C 727.932,528.087 727.598,528.587 724.5,528.5C 723.808,532.471 724.141,536.471 725.5,540.5C 726.216,544.422 726.883,544.422 727.5,540.5C 728.833,540.5 730.167,540.5 731.5,540.5C 731.5,541.5 731.5,542.5 731.5,543.5C 734.167,542.833 736.833,542.167 739.5,541.5C 739.5,540.5 739.5,539.5 739.5,538.5C 740.833,538.5 742.167,538.5 743.5,538.5C 743.5,537.5 743.5,536.5 743.5,535.5C 745.95,535.298 748.283,535.631 750.5,536.5C 746.604,540.617 742.937,544.95 739.5,549.5C 752.483,550.499 765.483,550.832 778.5,550.5C 778.705,558.867 778.371,567.2 777.5,575.5C 776.527,573.052 776.194,570.385 776.5,567.5C 768.167,567.5 759.833,567.5 751.5,567.5C 751.714,569.144 751.38,570.644 750.5,572C 728.833,572.667 707.167,572.667 685.5,572C 686.252,571.329 686.586,570.496 686.5,569.5C 700.195,554.141 713.862,538.808 727.5,523.5 Z"/></g>
<g><path style="opacity:1" fill="#afc7cd" d="M 643.5,548.5 C 647.064,552.091 649.398,556.425 650.5,561.5C 648.432,563.961 648.766,566.461 651.5,569C 649.109,569.691 649.109,570.691 651.5,572C 625.595,572.206 599.761,571.706 574,570.5C 573.374,572.991 572.541,572.991 571.5,570.5C 570.817,570.863 570.15,571.196 569.5,571.5C 564.316,566.737 558.316,563.237 551.5,561C 535.862,557.303 520.195,554.47 504.5,552.5C 512.132,551.642 519.799,551.309 527.5,551.5C 527.5,550.5 527.5,549.5 527.5,548.5C 534.01,550.362 540.676,551.362 547.5,551.5C 548.167,547.5 548.833,547.5 549.5,551.5C 580.918,552.225 612.252,551.225 643.5,548.5 Z"/></g>
<g><path style="opacity:1" fill="#d2e2e4" d="M 874.5,539.5 C 885.21,549.876 895.21,560.876 904.5,572.5C 881.5,572.5 858.5,572.5 835.5,572.5C 835.5,574.833 835.5,577.167 835.5,579.5C 835.746,585.559 835.413,591.559 834.5,597.5C 833.778,597.918 833.278,598.584 833,599.5C 832.667,598.167 832.333,596.833 832,595.5C 831.503,598.146 831.336,600.813 831.5,603.5C 826.167,603.5 820.833,603.5 815.5,603.5C 815.5,605.833 815.5,608.167 815.5,610.5C 814.167,610.5 812.833,610.5 811.5,610.5C 811.52,608.857 810.853,607.524 809.5,606.5C 810.349,604.49 809.682,602.823 807.5,601.5C 809.933,599.946 812.6,599.28 815.5,599.5C 815.083,596.657 814.083,593.99 812.5,591.5C 811.719,592.729 811.219,594.062 811,595.5C 811.036,580.536 810.869,565.536 810.5,550.5C 823.171,550.667 835.838,550.5 848.5,550C 847.944,549.617 847.611,549.117 847.5,548.5C 855.414,547.533 863.414,547.199 871.5,547.5C 871.215,545.712 871.548,544.045 872.5,542.5C 873.451,543.326 874.451,543.492 875.5,543C 873.689,541.959 873.355,540.793 874.5,539.5 Z"/></g>
<g><path style="opacity:1" fill="#a3c0c5" d="M 201.5,543.5 C 207.509,549.51 213.175,555.843 218.5,562.5C 217.082,564.308 215.082,564.975 212.5,564.5C 212.5,565.5 212.5,566.5 212.5,567.5C 209.5,567.5 206.5,567.5 203.5,567.5C 203.5,568.833 203.5,570.167 203.5,571.5C 200.123,571.068 197.123,571.735 194.5,573.5C 189.711,569.255 185.378,564.589 181.5,559.5C 184.843,557.672 187.509,555.172 189.5,552C 191.556,551.689 193.556,551.189 195.5,550.5C 196.386,549.675 196.719,548.675 196.5,547.5C 197.833,547.5 199.167,547.5 200.5,547.5C 200.232,545.901 200.566,544.568 201.5,543.5 Z"/></g>
<g><path style="opacity:1" fill="#6b8d96" d="M 272.5,550.5 C 271.781,552.764 271.448,555.097 271.5,557.5C 280.952,557.739 290.285,556.906 299.5,555C 301.194,551.922 303.861,550.422 307.5,550.5C 302.5,555.833 297.5,561.167 292.5,566.5C 289.933,566.855 287.433,567.521 285,568.5C 281.941,567.287 279.108,567.787 276.5,570C 270.96,570.764 265.46,570.597 260,569.5C 257.75,572.287 256.25,571.954 255.5,568.5C 260.463,561.869 266.13,555.869 272.5,550.5 Z"/></g>
<g><path style="opacity:1" fill="#8daeb4" d="M 218.5,562.5 C 220.471,564.808 222.471,567.142 224.5,569.5C 221.682,570.156 220.015,571.989 219.5,575C 216.833,575.333 214.167,575.667 211.5,576C 210.833,577.333 210.167,578.667 209.5,580C 206.176,580.517 203.51,581.35 201.5,582.5C 198.785,579.786 196.451,576.786 194.5,573.5C 197.123,571.735 200.123,571.068 203.5,571.5C 203.5,570.167 203.5,568.833 203.5,567.5C 206.5,567.5 209.5,567.5 212.5,567.5C 212.5,566.5 212.5,565.5 212.5,564.5C 215.082,564.975 217.082,564.308 218.5,562.5 Z"/></g>
<g><path style="opacity:1" fill="#7ca0a8" d="M 224.5,569.5 C 226.156,571.46 227.823,573.46 229.5,575.5C 228.843,578.559 226.843,580.059 223.5,580C 222.164,583.832 219.497,585.332 215.5,584.5C 215.005,587.997 213.172,588.997 210,587.5C 209.583,588.756 208.75,589.423 207.5,589.5C 205.5,587.167 203.5,584.833 201.5,582.5C 203.51,581.35 206.176,580.517 209.5,580C 210.167,578.667 210.833,577.333 211.5,576C 214.167,575.667 216.833,575.333 219.5,575C 220.015,571.989 221.682,570.156 224.5,569.5 Z"/></g>
<g><path style="opacity:1" fill="#b2bcc1" d="M 904.5,572.5 C 882.575,573.499 859.909,573.833 836.5,573.5C 836.795,575.735 836.461,577.735 835.5,579.5C 835.5,577.167 835.5,574.833 835.5,572.5C 858.5,572.5 881.5,572.5 904.5,572.5 Z"/></g>
<g><path style="opacity:1" fill="#9db9c0" d="M 650.5,561.5 C 653.704,566.972 655.371,572.972 655.5,579.5C 655.5,582.167 655.5,584.833 655.5,587.5C 629.778,587.637 604.111,587.637 578.5,587.5C 577.046,581.254 574.046,575.921 569.5,571.5C 570.15,571.196 570.817,570.863 571.5,570.5C 572.541,572.991 573.374,572.991 574,570.5C 599.761,571.706 625.595,572.206 651.5,572C 649.109,570.691 649.109,569.691 651.5,569C 648.766,566.461 648.432,563.961 650.5,561.5 Z"/></g>
<g><path style="opacity:1" fill="#6d9199" d="M 229.5,575.5 C 231.471,577.808 233.471,580.142 235.5,582.5C 236.028,583.847 236.195,585.181 236,586.5C 232.933,587.195 230.6,588.862 229,591.5C 223.607,592.053 218.44,593.387 213.5,595.5C 211.167,593.833 209.167,591.833 207.5,589.5C 208.75,589.423 209.583,588.756 210,587.5C 213.172,588.997 215.005,587.997 215.5,584.5C 219.497,585.332 222.164,583.832 223.5,580C 226.843,580.059 228.843,578.559 229.5,575.5 Z"/></g>
<g><path style="opacity:1" fill="#c5d7dc" d="M 777.5,575.5 C 777.399,585.303 776.399,594.97 774.5,604.5C 772.129,597.513 771.129,597.846 771.5,605.5C 767.63,604.201 763.63,603.534 759.5,603.5C 759.5,604.833 759.5,606.167 759.5,607.5C 751.33,607.902 747.663,603.902 748.5,595.5C 749.227,588.173 749.893,580.84 750.5,573.5C 728.164,573.667 705.831,573.5 683.5,573C 684.163,571.482 685.163,570.315 686.5,569.5C 686.586,570.496 686.252,571.329 685.5,572C 707.167,572.667 728.833,572.667 750.5,572C 751.38,570.644 751.714,569.144 751.5,567.5C 759.833,567.5 768.167,567.5 776.5,567.5C 776.194,570.385 776.527,573.052 777.5,575.5 Z"/></g>
<g><path style="opacity:1" fill="#8eadb3" d="M 655.5,579.5 C 656.735,588.686 656.735,598.019 655.5,607.5C 639.207,606.295 623.041,604.962 607,603.5C 605.806,604.43 604.473,605.097 603,605.5C 594.876,604.545 586.71,604.212 578.5,604.5C 578.5,602.833 578.5,601.167 578.5,599.5C 578.5,595.5 578.5,591.5 578.5,587.5C 604.111,587.637 629.778,587.637 655.5,587.5C 655.5,584.833 655.5,582.167 655.5,579.5 Z"/></g>
<g><path style="opacity:1" fill="#5f838d" d="M 292.5,566.5 C 286.805,572.526 281.139,578.526 275.5,584.5C 274.213,583.232 273.213,583.565 272.5,585.5C 271.167,584.833 269.833,584.167 268.5,583.5C 262.169,585.163 255.835,586.829 249.5,588.5C 247.348,586.931 245.014,586.431 242.5,587C 243.424,587.85 243.424,588.85 242.5,590C 242.905,590.945 243.572,591.612 244.5,592C 237.512,594.826 230.512,597.66 223.5,600.5C 223.473,602.199 222.806,603.533 221.5,604.5C 218.097,602.1 215.43,599.1 213.5,595.5C 218.44,593.387 223.607,592.053 229,591.5C 230.6,588.862 232.933,587.195 236,586.5C 236.195,585.181 236.028,583.847 235.5,582.5C 236.794,583.29 237.961,584.29 239,585.5C 244.73,579.938 250.23,574.271 255.5,568.5C 256.25,571.954 257.75,572.287 260,569.5C 265.46,570.597 270.96,570.764 276.5,570C 279.108,567.787 281.941,567.287 285,568.5C 287.433,567.521 289.933,566.855 292.5,566.5 Z"/></g>
<g><path style="opacity:1" fill="#4e747e" d="M 275.5,584.5 C 263.705,597.464 251.705,610.297 239.5,623C 238.365,623.749 237.365,623.583 236.5,622.5C 230.7,617.045 225.7,611.045 221.5,604.5C 222.806,603.533 223.473,602.199 223.5,600.5C 230.512,597.66 237.512,594.826 244.5,592C 243.572,591.612 242.905,590.945 242.5,590C 243.424,588.85 243.424,587.85 242.5,587C 245.014,586.431 247.348,586.931 249.5,588.5C 255.835,586.829 262.169,585.163 268.5,583.5C 269.833,584.167 271.167,584.833 272.5,585.5C 273.213,583.565 274.213,583.232 275.5,584.5 Z"/></g>
<g><path style="opacity:1" fill="#83a6ae" d="M 483.5,615.5 C 480.475,615.769 477.808,614.936 475.5,613C 476.167,612.667 476.833,612.333 477.5,612C 476.207,611.51 474.873,611.343 473.5,611.5C 473.5,610.5 473.5,609.5 473.5,608.5C 471.473,608.338 469.473,608.505 467.5,609C 469.384,609.216 471.051,609.883 472.5,611C 456.167,611.333 439.833,611.667 423.5,612C 414.291,612.387 405.291,613.887 396.5,616.5C 388.823,618.003 386.657,615.336 390,608.5C 391.045,607.627 391.878,606.627 392.5,605.5C 416.859,599.994 441.192,594.327 465.5,588.5C 468.824,593.14 471.657,598.14 474,603.5C 477.381,607.375 480.547,611.375 483.5,615.5 Z"/></g>
<g><path style="opacity:1" fill="#c3d4d8" d="M 810.5,550.5 C 810.869,565.536 811.036,580.536 811,595.5C 811.219,594.062 811.719,592.729 812.5,591.5C 814.083,593.99 815.083,596.657 815.5,599.5C 812.6,599.28 809.933,599.946 807.5,601.5C 809.682,602.823 810.349,604.49 809.5,606.5C 810.853,607.524 811.52,608.857 811.5,610.5C 812.833,610.5 814.167,610.5 815.5,610.5C 815.5,608.167 815.5,605.833 815.5,603.5C 820.833,603.5 826.167,603.5 831.5,603.5C 831.336,600.813 831.503,598.146 832,595.5C 832.333,596.833 832.667,598.167 833,599.5C 833.278,598.584 833.778,597.918 834.5,597.5C 832.784,611.693 830.118,625.693 826.5,639.5C 825.849,638.909 825.182,638.243 824.5,637.5C 821.193,638.75 817.693,639.416 814,639.5C 810.833,639.333 807.667,639.167 804.5,639C 805.622,637.387 805.122,636.22 803,635.5C 801.375,636.412 800.541,635.745 800.5,633.5C 806.394,606.021 809.727,578.354 810.5,550.5 Z"/></g>
<g><path style="opacity:1" fill="#7ea1a8" d="M 578.5,599.5 C 578.5,601.167 578.5,602.833 578.5,604.5C 586.71,604.212 594.876,604.545 603,605.5C 604.473,605.097 605.806,604.43 607,603.5C 623.041,604.962 639.207,606.295 655.5,607.5C 654.866,611.373 653.866,615.039 652.5,618.5C 651.469,619.355 650.303,620.022 649,620.5C 635.25,618.568 621.416,617.568 607.5,617.5C 596.371,618.292 585.371,618.958 574.5,619.5C 574.676,617.204 574.342,614.871 573.5,612.5C 575.387,608.158 577.054,603.825 578.5,599.5 Z"/></g>
<g><path style="opacity:1" fill="#759aa4" d="M 392.5,605.5 C 391.878,606.627 391.045,607.627 390,608.5C 386.657,615.336 388.823,618.003 396.5,616.5C 405.291,613.887 414.291,612.387 423.5,612C 439.833,611.667 456.167,611.333 472.5,611C 471.051,609.883 469.384,609.216 467.5,609C 469.473,608.505 471.473,608.338 473.5,608.5C 473.5,609.5 473.5,610.5 473.5,611.5C 474.873,611.343 476.207,611.51 477.5,612C 476.833,612.333 476.167,612.667 475.5,613C 477.808,614.936 480.475,615.769 483.5,615.5C 487.228,618.559 491.228,621.226 495.5,623.5C 495.33,624.822 495.663,625.989 496.5,627C 489.395,627.269 482.395,626.603 475.5,625C 455.505,624.25 435.505,623.75 415.5,623.5C 415.5,624.833 415.5,626.167 415.5,627.5C 409.262,627.793 403.095,627.793 397,627.5C 394.991,627.758 393.157,628.425 391.5,629.5C 386.182,624.05 384.682,617.717 387,610.5C 388.076,607.921 389.909,606.254 392.5,605.5 Z"/></g>
<g><path style="opacity:1" fill="#b2c8cf" d="M 748.5,595.5 C 747.663,603.902 751.33,607.902 759.5,607.5C 759.5,606.167 759.5,604.833 759.5,603.5C 763.63,603.534 767.63,604.201 771.5,605.5C 771.129,597.846 772.129,597.513 774.5,604.5C 772.769,615.424 770.102,626.091 766.5,636.5C 765.778,636.082 765.278,635.416 765,634.5C 763.991,636.025 763.491,637.692 763.5,639.5C 761.5,639.833 759.5,640.167 757.5,640.5C 757.719,641.675 757.386,642.675 756.5,643.5C 752.927,641.684 749.261,641.351 745.5,642.5C 743.278,641.222 740.944,640.222 738.5,639.5C 737.702,639.043 737.369,638.376 737.5,637.5C 742.666,623.776 746.333,609.776 748.5,595.5 Z"/></g>
<g><path style="opacity:1" fill="#6d929b" d="M 573.5,612.5 C 574.342,614.871 574.676,617.204 574.5,619.5C 585.371,618.958 596.371,618.292 607.5,617.5C 621.416,617.568 635.25,618.568 649,620.5C 650.303,620.022 651.469,619.355 652.5,618.5C 651.796,623.29 650.129,627.623 647.5,631.5C 645.743,632.787 644.076,634.287 642.5,636C 596.82,638.144 551.153,637.977 505.5,635.5C 505.5,634.5 505.5,633.5 505.5,632.5C 494.124,632.572 482.791,631.905 471.5,630.5C 469.314,630.711 467.147,631.044 465,631.5C 460.823,630.016 456.489,629.35 452,629.5C 439.883,631.092 427.716,631.758 415.5,631.5C 415.5,632.5 415.5,633.5 415.5,634.5C 412.833,634.833 410.167,635.167 407.5,635.5C 406.969,638.779 404.969,640.113 401.5,639.5C 397.833,636.5 394.5,633.167 391.5,629.5C 393.157,628.425 394.991,627.758 397,627.5C 403.095,627.793 409.262,627.793 415.5,627.5C 415.5,626.167 415.5,624.833 415.5,623.5C 435.505,623.75 455.505,624.25 475.5,625C 482.395,626.603 489.395,627.269 496.5,627C 495.663,625.989 495.33,624.822 495.5,623.5C 519.819,635.001 543.486,633.834 566.5,620C 568.966,617.521 571.299,615.021 573.5,612.5 Z"/></g>
<g><path style="opacity:1" fill="#618893" d="M 647.5,631.5 C 644.841,640.149 640.175,647.482 633.5,653.5C 630.236,652.676 626.902,652.342 623.5,652.5C 620.833,652.5 618.167,652.5 615.5,652.5C 615.5,651.5 615.5,650.5 615.5,649.5C 574.854,648.247 534.187,647.247 493.5,646.5C 476.833,646.667 460.167,646.833 443.5,647C 440.167,647.333 436.833,647.667 433.5,648C 432.027,648.71 431.36,649.876 431.5,651.5C 428.531,650.671 425.531,650.505 422.5,651C 422.833,651.333 423.167,651.667 423.5,652C 422.142,652.934 420.808,653.768 419.5,654.5C 412.891,650.224 406.891,645.224 401.5,639.5C 404.969,640.113 406.969,638.779 407.5,635.5C 410.167,635.167 412.833,634.833 415.5,634.5C 415.5,633.5 415.5,632.5 415.5,631.5C 427.716,631.758 439.883,631.092 452,629.5C 456.489,629.35 460.823,630.016 465,631.5C 467.147,631.044 469.314,630.711 471.5,630.5C 482.791,631.905 494.124,632.572 505.5,632.5C 505.5,633.5 505.5,634.5 505.5,635.5C 551.153,637.977 596.82,638.144 642.5,636C 644.076,634.287 645.743,632.787 647.5,631.5 Z"/></g>
<g><path style="opacity:1" fill="#59808b" d="M 623.5,652.5 C 624.949,654.164 626.949,654.998 629.5,655C 627.333,656.833 625.167,658.667 623,660.5C 620.983,659.294 619.149,659.627 617.5,661.5C 611.665,659.374 605.665,657.874 599.5,657C 544.15,653.883 488.816,653.883 433.5,657C 432.391,657.638 431.225,658.138 430,658.5C 427.503,657.751 425.003,657.084 422.5,656.5C 421.29,656.068 420.29,655.401 419.5,654.5C 420.808,653.768 422.142,652.934 423.5,652C 423.167,651.667 422.833,651.333 422.5,651C 425.531,650.505 428.531,650.671 431.5,651.5C 431.36,649.876 432.027,648.71 433.5,648C 436.833,647.667 440.167,647.333 443.5,647C 460.167,646.833 476.833,646.667 493.5,646.5C 534.187,647.247 574.854,648.247 615.5,649.5C 615.5,650.5 615.5,651.5 615.5,652.5C 618.167,652.5 620.833,652.5 623.5,652.5 Z"/></g>
<g><path style="opacity:1" fill="#4c5c63" d="M 289.5,639.5 C 289.5,642.5 289.5,645.5 289.5,648.5C 286.833,648.5 284.167,648.5 281.5,648.5C 283.607,647.532 285.941,647.198 288.5,647.5C 288.194,644.615 288.527,641.948 289.5,639.5 Z"/></g>
<g><path style="opacity:1" fill="#b9d1d7" d="M 289.5,639.5 C 292.518,639.335 295.518,639.502 298.5,640C 299.167,642.667 299.833,645.333 300.5,648C 307.888,648.848 314.554,651.348 320.5,655.5C 320.029,656.901 319.362,658.234 318.5,659.5C 315.719,659.536 312.886,659.202 310,658.5C 308.018,658.99 306.351,659.99 305,661.5C 304.311,660.643 303.478,659.977 302.5,659.5C 302.511,660.441 302.011,661.108 301,661.5C 296.889,660.596 292.722,660.263 288.5,660.5C 285.119,660.46 281.786,660.793 278.5,661.5C 277.25,661.423 276.417,660.756 276,659.5C 268.67,662.287 261.17,662.953 253.5,661.5C 260.991,653.424 270.324,649.091 281.5,648.5C 284.167,648.5 286.833,648.5 289.5,648.5C 289.5,645.5 289.5,642.5 289.5,639.5 Z"/></g>
<g><path style="opacity:1" fill="#a9c0c5" d="M 800.5,633.5 C 800.541,635.745 801.375,636.412 803,635.5C 805.122,636.22 805.622,637.387 804.5,639C 807.667,639.167 810.833,639.333 814,639.5C 817.693,639.416 821.193,638.75 824.5,637.5C 825.182,638.243 825.849,638.909 826.5,639.5C 823.968,649.428 820.635,659.095 816.5,668.5C 810.247,667.707 803.914,667.207 797.5,667C 795.559,666.696 793.893,665.863 792.5,664.5C 790.775,666.092 789.775,665.758 789.5,663.5C 793.193,653.414 796.859,643.414 800.5,633.5 Z"/></g>
<g><path style="opacity:1" fill="#4e7481" d="M 623.5,652.5 C 626.902,652.342 630.236,652.676 633.5,653.5C 622.465,665.359 609.131,673.693 593.5,678.5C 572.692,673.57 551.359,671.236 529.5,671.5C 518.833,671.833 508.167,672.167 497.5,672.5C 496.271,673.281 494.938,673.781 493.5,674C 494.258,675.364 493.758,676.531 492,677.5C 490.13,676.257 487.964,675.59 485.5,675.5C 479.024,675.853 472.69,676.853 466.5,678.5C 450.4,673.783 435.733,666.45 422.5,656.5C 425.003,657.084 427.503,657.751 430,658.5C 431.225,658.138 432.391,657.638 433.5,657C 488.816,653.883 544.15,653.883 599.5,657C 605.665,657.874 611.665,659.374 617.5,661.5C 619.149,659.627 620.983,659.294 623,660.5C 625.167,658.667 627.333,656.833 629.5,655C 626.949,654.998 624.949,654.164 623.5,652.5 Z"/></g>
<g><path style="opacity:1" fill="#040d17" d="M 288.5,660.5 C 289.466,668.08 289.799,675.747 289.5,683.5C 289.5,688.833 289.5,694.167 289.5,699.5C 289.5,704.833 289.5,710.167 289.5,715.5C 283.389,715.889 277.723,714.555 272.5,711.5C 265.302,707.28 261.302,700.947 260.5,692.5C 265.5,692.5 270.5,692.5 275.5,692.5C 275.5,689.5 275.5,686.5 275.5,683.5C 270.833,682.833 266.167,682.167 261.5,681.5C 261.94,678.62 262.94,675.954 264.5,673.5C 268.284,668.376 272.951,664.376 278.5,661.5C 281.786,660.793 285.119,660.46 288.5,660.5 Z"/></g>
<g><path style="opacity:1" fill="#92afb7" d="M 766.5,636.5 C 762.381,649.858 756.714,662.525 749.5,674.5C 747.158,674.225 747.158,673.392 749.5,672C 741.097,671.64 732.764,670.807 724.5,669.5C 724.5,667.833 724.5,666.167 724.5,664.5C 729.14,655.557 733.473,646.557 737.5,637.5C 737.369,638.376 737.702,639.043 738.5,639.5C 740.944,640.222 743.278,641.222 745.5,642.5C 749.261,641.351 752.927,641.684 756.5,643.5C 757.386,642.675 757.719,641.675 757.5,640.5C 759.5,640.167 761.5,639.833 763.5,639.5C 763.491,637.692 763.991,636.025 765,634.5C 765.278,635.416 765.778,636.082 766.5,636.5 Z"/></g>
<g><path style="opacity:1" fill="#a4bec3" d="M 320.5,655.5 C 326.383,659.612 328.717,665.278 327.5,672.5C 321.794,672.829 316.128,672.495 310.5,671.5C 308.363,667.023 305.03,664.023 300.5,662.5C 299.509,668.979 299.176,675.646 299.5,682.5C 296.951,682.613 294.618,681.946 292.5,680.5C 291.859,681.993 290.859,682.993 289.5,683.5C 289.799,675.747 289.466,668.08 288.5,660.5C 292.722,660.263 296.889,660.596 301,661.5C 302.011,661.108 302.511,660.441 302.5,659.5C 303.478,659.977 304.311,660.643 305,661.5C 306.351,659.99 308.018,658.99 310,658.5C 312.886,659.202 315.719,659.536 318.5,659.5C 319.362,658.234 320.029,656.901 320.5,655.5 Z"/></g>
<g><path style="opacity:1" fill="#a4c3c9" d="M 278.5,661.5 C 272.951,664.376 268.284,668.376 264.5,673.5C 259.528,671.222 254.362,670.888 249,672.5C 247.624,672.316 246.791,671.649 246.5,670.5C 247.694,666.637 250.027,663.637 253.5,661.5C 261.17,662.953 268.67,662.287 276,659.5C 276.417,660.756 277.25,661.423 278.5,661.5 Z"/></g>
<g><path style="opacity:1" fill="#436874" d="M 593.5,678.5 C 583.172,682.456 572.506,684.79 561.5,685.5C 560.711,685.783 560.044,686.283 559.5,687C 542.152,687.777 524.819,687.611 507.5,686.5C 504.979,687.089 502.479,687.755 500,688.5C 498.213,688.241 496.713,687.575 495.5,686.5C 485.718,684.304 476.052,681.638 466.5,678.5C 472.69,676.853 479.024,675.853 485.5,675.5C 487.964,675.59 490.13,676.257 492,677.5C 493.758,676.531 494.258,675.364 493.5,674C 494.938,673.781 496.271,673.281 497.5,672.5C 508.167,672.167 518.833,671.833 529.5,671.5C 551.359,671.236 572.692,673.57 593.5,678.5 Z"/></g>
<g><path style="opacity:1" fill="#93afb6" d="M 789.5,663.5 C 789.775,665.758 790.775,666.092 792.5,664.5C 793.893,665.863 795.559,666.696 797.5,667C 803.914,667.207 810.247,667.707 816.5,668.5C 813.045,677.411 809.045,686.077 804.5,694.5C 803.842,693.602 803.176,692.602 802.5,691.5C 795.861,691.606 789.194,691.606 782.5,691.5C 780.008,691.166 778.341,689.833 777.5,687.5C 781.533,679.435 785.533,671.435 789.5,663.5 Z"/></g>
<g><path style="opacity:1" fill="#30444f" d="M 261.5,681.5 C 266.167,682.167 270.833,682.833 275.5,683.5C 270.456,683.827 265.456,683.494 260.5,682.5C 260.624,681.893 260.957,681.56 261.5,681.5 Z"/></g>
<g><path style="opacity:1" fill="#81a4ad" d="M 246.5,670.5 C 246.791,671.649 247.624,672.316 249,672.5C 254.362,670.888 259.528,671.222 264.5,673.5C 262.94,675.954 261.94,678.62 261.5,681.5C 260.957,681.56 260.624,681.893 260.5,682.5C 265.456,683.494 270.456,683.827 275.5,683.5C 275.5,686.5 275.5,689.5 275.5,692.5C 270.5,692.5 265.5,692.5 260.5,692.5C 259.596,693.209 259.263,694.209 259.5,695.5C 255.958,695.38 252.458,695.714 249,696.5C 247.373,696.375 245.873,695.875 244.5,695C 245.833,694.333 245.833,693.667 244.5,693C 242.288,692.211 240.288,692.378 238.5,693.5C 237.235,692.486 236.569,690.986 236.5,689C 235.761,684.24 237.761,682.407 242.5,683.5C 242.654,678.711 243.987,674.378 246.5,670.5 Z"/></g>
<g><path style="opacity:1" fill="#7a9ba3" d="M 724.5,664.5 C 724.5,666.167 724.5,667.833 724.5,669.5C 732.764,670.807 741.097,671.64 749.5,672C 747.158,673.392 747.158,674.225 749.5,674.5C 743.826,685.188 737.159,695.188 729.5,704.5C 728.883,704.389 728.383,704.056 728,703.5C 719.53,704.18 711.03,704.847 702.5,705.5C 700.177,704.196 698.844,702.196 698.5,699.5C 707.969,688.374 716.636,676.707 724.5,664.5 Z"/></g>
<g><path style="opacity:1" fill="#6d939c" d="M 299.5,682.5 C 299.5,688.5 299.5,694.5 299.5,700.5C 298.12,699.294 296.953,699.627 296,701.5C 295.333,700.833 294.667,700.167 294,699.5C 292.586,700.413 291.086,700.413 289.5,699.5C 289.5,694.167 289.5,688.833 289.5,683.5C 290.859,682.993 291.859,681.993 292.5,680.5C 294.618,681.946 296.951,682.613 299.5,682.5 Z"/></g>
<g><path style="opacity:1" fill="#2d424c" d="M 300.5,662.5 C 299.848,679.866 300.514,696.866 302.5,713.5C 301.791,714.404 300.791,714.737 299.5,714.5C 299.5,709.833 299.5,705.167 299.5,700.5C 299.5,694.5 299.5,688.5 299.5,682.5C 299.176,675.646 299.509,668.979 300.5,662.5 Z"/></g>
<g><path style="opacity:1" fill="#365c68" d="M 561.5,685.5 C 561.5,686.167 561.5,686.833 561.5,687.5C 560.505,699.655 560.171,711.989 560.5,724.5C 559.549,723.081 559.216,721.415 559.5,719.5C 558.167,719.5 556.833,719.5 555.5,719.5C 555.5,716.833 555.5,714.167 555.5,711.5C 538.167,711.5 520.833,711.5 503.5,711.5C 503.5,710.5 503.5,709.5 503.5,708.5C 500.467,708.868 497.8,708.202 495.5,706.5C 495.5,699.833 495.5,693.167 495.5,686.5C 496.713,687.575 498.213,688.241 500,688.5C 502.479,687.755 504.979,687.089 507.5,686.5C 524.819,687.611 542.152,687.777 559.5,687C 560.044,686.283 560.711,685.783 561.5,685.5 Z"/></g>
<g><path style="opacity:1" fill="#7c9ea6" d="M 777.5,687.5 C 778.341,689.833 780.008,691.166 782.5,691.5C 789.194,691.606 795.861,691.606 802.5,691.5C 803.176,692.602 803.842,693.602 804.5,694.5C 801.737,699.701 798.737,704.701 795.5,709.5C 792.741,710.885 789.741,711.552 786.5,711.5C 782.837,711.056 779.171,710.722 775.5,710.5C 774.996,706.665 773.996,706.665 772.5,710.5C 767.618,709.665 766.285,706.998 768.5,702.5C 771.263,697.299 774.263,692.299 777.5,687.5 Z"/></g>
<g><path style="opacity:1" fill="#517a85" d="M 238.5,693.5 C 240.288,692.378 242.288,692.211 244.5,693C 245.833,693.667 245.833,694.333 244.5,695C 245.873,695.875 247.373,696.375 249,696.5C 252.458,695.714 255.958,695.38 259.5,695.5C 259.263,694.209 259.596,693.209 260.5,692.5C 261.302,700.947 265.302,707.28 272.5,711.5C 265.563,714.174 258.229,715.174 250.5,714.5C 246.267,708.14 243.601,701.14 242.5,693.5C 241.167,693.5 239.833,693.5 238.5,693.5 Z"/></g>
<g><path style="opacity:1" fill="#6f929d" d="M 768.5,702.5 C 766.285,706.998 767.618,709.665 772.5,710.5C 773.996,706.665 774.996,706.665 775.5,710.5C 779.171,710.722 782.837,711.056 786.5,711.5C 789.741,711.552 792.741,710.885 795.5,709.5C 792.254,715.418 788.587,721.085 784.5,726.5C 783.596,725.791 783.263,724.791 783.5,723.5C 779.694,723.588 776.028,722.921 772.5,721.5C 771.158,723.005 769.492,723.672 767.5,723.5C 767.5,724.5 767.5,725.5 767.5,726.5C 764.731,726.2 762.231,725.2 760,723.5C 758.395,724.101 757.062,725.101 756,726.5C 755.505,724.527 755.338,722.527 755.5,720.5C 759.845,714.462 764.179,708.462 768.5,702.5 Z"/></g>
<g><path style="opacity:1" fill="#426a74" d="M 289.5,699.5 C 291.086,700.413 292.586,700.413 294,699.5C 294.667,700.167 295.333,700.833 296,701.5C 296.953,699.627 298.12,699.294 299.5,700.5C 299.5,705.167 299.5,709.833 299.5,714.5C 300.791,714.737 301.791,714.404 302.5,713.5C 305.582,711.925 308.249,709.758 310.5,707C 315.823,706.501 321.156,706.334 326.5,706.5C 326.665,710.182 326.499,713.848 326,717.5C 318.315,723.788 309.481,727.455 299.5,728.5C 299.5,732.833 299.5,737.167 299.5,741.5C 296.223,741.784 293.057,741.451 290,740.5C 289.797,736.579 289.297,732.745 288.5,729C 273.444,729.923 260.777,725.09 250.5,714.5C 258.229,715.174 265.563,714.174 272.5,711.5C 277.723,714.555 283.389,715.889 289.5,715.5C 289.5,710.167 289.5,704.833 289.5,699.5 Z"/></g>
<g><path style="opacity:1" fill="#5f828c" d="M 698.5,699.5 C 698.844,702.196 700.177,704.196 702.5,705.5C 711.03,704.847 719.53,704.18 728,703.5C 728.383,704.056 728.883,704.389 729.5,704.5C 723.842,711.491 717.842,718.157 711.5,724.5C 710.178,724.33 709.011,724.663 708,725.5C 707.692,724.692 707.192,724.025 706.5,723.5C 704.492,724.686 702.659,726.02 701,727.5C 699.467,726.305 697.967,726.305 696.5,727.5C 695.614,726.675 695.281,725.675 695.5,724.5C 694.167,724.5 692.833,724.5 691.5,724.5C 691.719,725.675 691.386,726.675 690.5,727.5C 688.45,726.923 687.45,725.59 687.5,723.5C 684.167,723.5 680.833,723.5 677.5,723.5C 677.5,722.5 677.5,721.5 677.5,720.5C 684.833,713.833 691.833,706.833 698.5,699.5 Z"/></g>
<g><path style="opacity:1" fill="#2a4f5b" d="M 495.5,706.5 C 497.8,708.202 500.467,708.868 503.5,708.5C 503.5,709.5 503.5,710.5 503.5,711.5C 520.833,711.5 538.167,711.5 555.5,711.5C 555.5,714.167 555.5,716.833 555.5,719.5C 556.833,719.5 558.167,719.5 559.5,719.5C 559.216,721.415 559.549,723.081 560.5,724.5C 560.666,731.175 560.5,737.842 560,744.5C 559.667,744.167 559.333,743.833 559,743.5C 558.51,744.793 558.343,746.127 558.5,747.5C 556.167,747.5 553.833,747.5 551.5,747.5C 551.5,746.167 551.5,744.833 551.5,743.5C 548.833,743.5 546.167,743.5 543.5,743.5C 543.5,742.167 543.5,740.833 543.5,739.5C 535.5,739.5 527.5,739.5 519.5,739.5C 519.5,740.833 519.5,742.167 519.5,743.5C 515.466,743.505 511.466,743.838 507.5,744.5C 507.5,745.5 507.5,746.5 507.5,747.5C 504.167,747.5 500.833,747.5 497.5,747.5C 497.335,751.182 497.501,754.848 498,758.5C 498.698,759.691 499.531,760.691 500.5,761.5C 498.833,761.5 497.167,761.5 495.5,761.5C 495.5,743.167 495.5,724.833 495.5,706.5 Z"/></g>
<g><path style="opacity:1" fill="#4f757f" d="M 677.5,720.5 C 677.5,721.5 677.5,722.5 677.5,723.5C 680.833,723.5 684.167,723.5 687.5,723.5C 687.45,725.59 688.45,726.923 690.5,727.5C 691.386,726.675 691.719,725.675 691.5,724.5C 692.833,724.5 694.167,724.5 695.5,724.5C 695.281,725.675 695.614,726.675 696.5,727.5C 697.967,726.305 699.467,726.305 701,727.5C 702.659,726.02 704.492,724.686 706.5,723.5C 707.192,724.025 707.692,724.692 708,725.5C 709.011,724.663 710.178,724.33 711.5,724.5C 704.586,731.624 697.253,738.291 689.5,744.5C 686.031,745.113 684.031,743.779 683.5,740.5C 681.508,740.328 679.842,740.995 678.5,742.5C 677.107,741.137 675.441,740.304 673.5,740C 668.293,739.241 663.126,739.408 658,740.5C 657.5,740.333 657,740.167 656.5,740C 656.205,738.286 656.538,736.453 657.5,734.5C 664.196,729.824 670.862,725.157 677.5,720.5 Z"/></g>
<g><path style="opacity:1" fill="#648793" d="M 755.5,720.5 C 755.338,722.527 755.505,724.527 756,726.5C 757.062,725.101 758.395,724.101 760,723.5C 762.231,725.2 764.731,726.2 767.5,726.5C 767.5,725.5 767.5,724.5 767.5,723.5C 769.492,723.672 771.158,723.005 772.5,721.5C 776.028,722.921 779.694,723.588 783.5,723.5C 783.263,724.791 783.596,725.791 784.5,726.5C 781.565,731.765 777.899,736.432 773.5,740.5C 767.71,737.687 762.044,738.02 756.5,741.5C 751.805,740.863 747.138,740.03 742.5,739C 744.568,736.358 746.235,733.525 747.5,730.5C 749.817,726.854 752.484,723.52 755.5,720.5 Z"/></g>
<g><path style="opacity:1" fill="#3b636e" d="M 406.5,741.5 C 405.77,743.045 404.437,743.878 402.5,744C 395.362,743.988 388.362,744.821 381.5,746.5C 378.955,743.962 376.455,743.962 374,746.5C 372.246,744.886 370.246,743.553 368,742.5C 366.644,743.38 365.144,743.714 363.5,743.5C 363.5,741.5 363.5,739.5 363.5,737.5C 358.167,737.833 352.833,738.167 347.5,738.5C 347.073,734.996 347.073,731.329 347.5,727.5C 351.749,719.326 354.582,710.66 356,701.5C 370.693,717.589 387.526,730.922 406.5,741.5 Z"/></g>
<g><path style="opacity:1" fill="#224652" d="M 561.5,687.5 C 561.5,712.167 561.5,736.833 561.5,761.5C 541.167,761.5 520.833,761.5 500.5,761.5C 499.531,760.691 498.698,759.691 498,758.5C 497.501,754.848 497.335,751.182 497.5,747.5C 500.833,747.5 504.167,747.5 507.5,747.5C 507.5,746.5 507.5,745.5 507.5,744.5C 511.466,743.838 515.466,743.505 519.5,743.5C 519.5,742.167 519.5,740.833 519.5,739.5C 527.5,739.5 535.5,739.5 543.5,739.5C 543.5,740.833 543.5,742.167 543.5,743.5C 546.167,743.5 548.833,743.5 551.5,743.5C 551.5,744.833 551.5,746.167 551.5,747.5C 553.833,747.5 556.167,747.5 558.5,747.5C 558.343,746.127 558.51,744.793 559,743.5C 559.333,743.833 559.667,744.167 560,744.5C 560.5,737.842 560.666,731.175 560.5,724.5C 560.171,711.989 560.505,699.655 561.5,687.5 Z"/></g>
<g><path style="opacity:1" fill="#325964" d="M 347.5,727.5 C 347.073,731.329 347.073,734.996 347.5,738.5C 352.833,738.167 358.167,737.833 363.5,737.5C 363.5,739.5 363.5,741.5 363.5,743.5C 365.144,743.714 366.644,743.38 368,742.5C 370.246,743.553 372.246,744.886 374,746.5C 376.455,743.962 378.955,743.962 381.5,746.5C 388.362,744.821 395.362,743.988 402.5,744C 404.437,743.878 405.77,743.045 406.5,741.5C 419.125,748.83 432.459,754.83 446.5,759.5C 447.498,768.475 447.832,777.475 447.5,786.5C 417.751,779.313 390.751,766.48 366.5,748C 363.567,748.732 361.234,750.565 359.5,753.5C 358.178,753.67 357.011,753.337 356,752.5C 354.833,754.333 353.667,756.167 352.5,758C 350.579,758.36 348.912,759.194 347.5,760.5C 346.914,760.291 346.414,759.957 346,759.5C 345.77,763.213 344.603,763.88 342.5,761.5C 341.548,759.955 341.215,758.288 341.5,756.5C 337.267,755.218 333.267,755.885 329.5,758.5C 327.5,758 325.5,757.5 323.5,757C 324.167,756.667 324.833,756.333 325.5,756C 324.619,755.292 323.953,754.458 323.5,753.5C 333.284,746.387 341.284,737.72 347.5,727.5 Z"/></g>
<g><path style="opacity:1" fill="#3d6570" d="M 657.5,734.5 C 656.538,736.453 656.205,738.286 656.5,740C 657,740.167 657.5,740.333 658,740.5C 663.126,739.408 668.293,739.241 673.5,740C 675.441,740.304 677.107,741.137 678.5,742.5C 679.842,740.995 681.508,740.328 683.5,740.5C 684.031,743.779 686.031,745.113 689.5,744.5C 665.286,763.444 638.286,777.444 608.5,786.5C 607.335,777.518 607.168,768.518 608,759.5C 625.569,753.133 642.069,744.799 657.5,734.5 Z"/></g>
<g><path style="opacity:1" fill="#577b86" d="M 747.5,730.5 C 746.235,733.525 744.568,736.358 742.5,739C 747.138,740.03 751.805,740.863 756.5,741.5C 762.044,738.02 767.71,737.687 773.5,740.5C 769.945,746.727 765.278,752.06 759.5,756.5C 758.284,756.264 757.117,756.264 756,756.5C 755.517,757.448 755.351,758.448 755.5,759.5C 744.645,760.111 733.978,759.445 723.5,757.5C 722.522,757.977 721.689,758.643 721,759.5C 720.536,758.906 720.369,758.239 720.5,757.5C 729.86,748.806 738.86,739.806 747.5,730.5 Z"/></g>
<g><path style="opacity:1" fill="#496f79" d="M 759.5,756.5 C 754.188,763.812 747.854,770.146 740.5,775.5C 738.549,775.227 737.049,775.893 736,777.5C 735.047,775.408 733.714,775.075 732,776.5C 722.911,775.681 713.744,775.181 704.5,775C 703.177,774.184 702.511,773.017 702.5,771.5C 708.786,767.215 714.786,762.549 720.5,757.5C 720.369,758.239 720.536,758.906 721,759.5C 721.689,758.643 722.522,757.977 723.5,757.5C 733.978,759.445 744.645,760.111 755.5,759.5C 755.351,758.448 755.517,757.448 756,756.5C 757.117,756.264 758.284,756.264 759.5,756.5 Z"/></g>
<g><path style="opacity:1" fill="#2b525f" d="M 359.5,753.5 C 354.87,758.631 350.037,763.631 345,768.5C 344.333,769.167 344.333,769.833 345,770.5C 360.244,782.63 376.744,792.63 394.5,800.5C 395.347,801.966 396.68,802.8 398.5,803C 397.552,803.483 396.552,803.649 395.5,803.5C 395.5,804.5 395.5,805.5 395.5,806.5C 393.334,806.421 391.334,805.754 389.5,804.5C 387.666,805.754 385.666,806.421 383.5,806.5C 383.5,805.5 383.5,804.5 383.5,803.5C 378.167,803.5 372.833,803.5 367.5,803.5C 367.5,804.833 367.5,806.167 367.5,807.5C 365.315,807.888 363.482,808.888 362,810.5C 361.055,810.095 360.388,809.428 360,808.5C 359.583,809.756 358.75,810.423 357.5,810.5C 335.008,797.413 313.675,782.58 293.5,766C 304.12,763.186 314.12,759.02 323.5,753.5C 323.953,754.458 324.619,755.292 325.5,756C 324.833,756.333 324.167,756.667 323.5,757C 325.5,757.5 327.5,758 329.5,758.5C 333.267,755.885 337.267,755.218 341.5,756.5C 341.215,758.288 341.548,759.955 342.5,761.5C 344.603,763.88 345.77,763.213 346,759.5C 346.414,759.957 346.914,760.291 347.5,760.5C 348.912,759.194 350.579,758.36 352.5,758C 353.667,756.167 354.833,754.333 356,752.5C 357.011,753.337 358.178,753.67 359.5,753.5 Z"/></g>
<g><path style="opacity:1" fill="#3b626d" d="M 702.5,771.5 C 702.511,773.017 703.177,774.184 704.5,775C 713.744,775.181 722.911,775.681 732,776.5C 733.714,775.075 735.047,775.408 736,777.5C 737.049,775.893 738.549,775.227 740.5,775.5C 728.43,786.373 715.43,796.04 701.5,804.5C 696.967,803.016 692.3,802.35 687.5,802.5C 687.5,800.833 687.5,799.167 687.5,797.5C 686.167,797.5 684.833,797.5 683.5,797.5C 683.5,799.167 683.5,800.833 683.5,802.5C 679.5,802.5 675.5,802.5 671.5,802.5C 671.5,800.833 671.5,799.167 671.5,797.5C 668.267,798.746 664.934,799.246 661.5,799C 662.989,797.532 664.323,796.032 665.5,794.5C 678.301,787.599 690.634,779.932 702.5,771.5 Z"/></g>
<g><path style="opacity:1" fill="#a7c2c9" d="M 519.5,817.5 C 518.778,817.918 518.278,818.584 518,819.5C 513.378,819.391 508.545,819.391 503.5,819.5C 502.725,815.818 504.059,813.318 507.5,812C 506.177,811.184 505.511,810.017 505.5,808.5C 509.456,803.762 514.29,800.095 520,797.5C 520.498,794.183 520.665,790.85 520.5,787.5C 525.5,787.5 530.5,787.5 535.5,787.5C 535.18,790.898 535.513,794.232 536.5,797.5C 543.179,798.83 549.179,801.496 554.5,805.5C 552.716,810.094 550.216,814.094 547,817.5C 540.059,813.223 532.559,811.39 524.5,812C 521.921,813.076 520.254,814.909 519.5,817.5 Z"/></g>
<g><path style="opacity:1" fill="#264a58" d="M 394.5,800.5 C 411.538,806.957 428.872,812.624 446.5,817.5C 447.833,826.5 447.833,835.5 446.5,844.5C 414.96,837.879 385.293,826.545 357.5,810.5C 358.75,810.423 359.583,809.756 360,808.5C 360.388,809.428 361.055,810.095 362,810.5C 363.482,808.888 365.315,807.888 367.5,807.5C 367.5,806.167 367.5,804.833 367.5,803.5C 372.833,803.5 378.167,803.5 383.5,803.5C 383.5,804.5 383.5,805.5 383.5,806.5C 385.666,806.421 387.666,805.754 389.5,804.5C 391.334,805.754 393.334,806.421 395.5,806.5C 395.5,805.5 395.5,804.5 395.5,803.5C 396.552,803.649 397.552,803.483 398.5,803C 396.68,802.8 395.347,801.966 394.5,800.5 Z"/></g>
<g><path style="opacity:1" fill="#2d545f" d="M 665.5,794.5 C 664.323,796.032 662.989,797.532 661.5,799C 664.934,799.246 668.267,798.746 671.5,797.5C 671.5,799.167 671.5,800.833 671.5,802.5C 675.5,802.5 679.5,802.5 683.5,802.5C 683.5,800.833 683.5,799.167 683.5,797.5C 684.833,797.5 686.167,797.5 687.5,797.5C 687.5,799.167 687.5,800.833 687.5,802.5C 692.3,802.35 696.967,803.016 701.5,804.5C 672.528,822.98 641.195,835.98 607.5,843.5C 607.183,834.582 607.516,825.749 608.5,817C 628.345,811.554 647.345,804.054 665.5,794.5 Z"/></g>
<g><path style="opacity:1" fill="#8eafb6" d="M 505.5,808.5 C 505.511,810.017 506.177,811.184 507.5,812C 504.059,813.318 502.725,815.818 503.5,819.5C 508.545,819.391 513.378,819.391 518,819.5C 518.278,818.584 518.778,817.918 519.5,817.5C 519.128,820.923 520.461,823.423 523.5,825C 529.08,827.194 534.747,829.194 540.5,831C 543.239,832.026 545.572,833.526 547.5,835.5C 547.565,835.938 547.399,836.272 547,836.5C 534.553,835.314 522.053,834.148 509.5,833C 508.241,830.273 506.241,828.439 503.5,827.5C 502.441,822.552 502.274,817.552 503,812.5C 503.608,810.934 504.442,809.6 505.5,808.5 Z"/></g>
<g><path style="opacity:1" fill="#729ca3" d="M 503.5,827.5 C 506.241,828.439 508.241,830.273 509.5,833C 522.053,834.148 534.553,835.314 547,836.5C 547.399,836.272 547.565,835.938 547.5,835.5C 551.574,837.618 554.241,840.951 555.5,845.5C 555.5,848.5 555.5,851.5 555.5,854.5C 550.167,854.5 544.833,854.5 539.5,854.5C 539.737,853.209 539.404,852.209 538.5,851.5C 538.141,849.629 537.141,848.129 535.5,847C 526.351,844.424 517.685,840.758 509.5,836C 506.629,833.751 504.629,830.918 503.5,827.5 Z"/></g>
<g><path style="opacity:1" fill="#4e7780" d="M 555.5,845.5 C 558.838,855.742 556.171,864.075 547.5,870.5C 547.631,869.761 547.464,869.094 547,868.5C 539.458,869.206 531.625,869.706 523.5,870C 523,870.5 522.5,871 522,871.5C 519.971,869.525 517.471,868.525 514.5,868.5C 512.528,869.157 510.695,869.157 509,868.5C 507.89,870.037 506.39,870.703 504.5,870.5C 501.66,869.577 499.326,867.91 497.5,865.5C 500.041,860.918 502.707,856.418 505.5,852C 512.544,855.416 520.044,857.916 528,859.5C 534.344,860.261 537.844,857.594 538.5,851.5C 539.404,852.209 539.737,853.209 539.5,854.5C 544.833,854.5 550.167,854.5 555.5,854.5C 555.5,851.5 555.5,848.5 555.5,845.5 Z"/></g>
<g><path style="opacity:1" fill="#406670" d="M 547.5,870.5 C 544.271,872.945 540.605,874.611 536.5,875.5C 535.506,880.456 535.173,885.456 535.5,890.5C 530.5,890.5 525.5,890.5 520.5,890.5C 520.5,885.5 520.5,880.5 520.5,875.5C 514.585,875.416 509.252,873.749 504.5,870.5C 506.39,870.703 507.89,870.037 509,868.5C 510.695,869.157 512.528,869.157 514.5,868.5C 517.471,868.525 519.971,869.525 522,871.5C 522.5,871 523,870.5 523.5,870C 531.625,869.706 539.458,869.206 547,868.5C 547.464,869.094 547.631,869.761 547.5,870.5 Z"/></g>
</svg>
